<?xml version="1.0" encoding="utf-8"?>
<!-- Generator: Adobe Illustrator 23.1.0, SVG Export Plug-In . SVG Version: 6.00 Build 0)  -->
<svg version="1.1" id="Layer_1" xmlns="http://www.w3.org/2000/svg" xmlns:xlink="http://www.w3.org/1999/xlink" x="0px" y="0px"
	 viewBox="0 0 166.7 103.1" style="enable-background:new 0 0 166.7 103.1;" xml:space="preserve">
<style type="text/css">
	.st0{fill:#EF7B10;}
	.st1{fill:#FFFFFF;}
</style>
<g>
	<path class="st0" d="M166.7,0v92.9c0,5.6-4.6,10.2-10.2,10.2H10.2C4.6,103.1,0,98.5,0,92.9V0L166.7,0L166.7,0z"/>
	<g>
		<path class="st1" d="M40.2,84.1H27.5c-1.7,0-3.2-0.7-4.5-2s-1.9-2.9-1.9-4.7V63.5c0-1.8,0.7-3.3,2-4.6c1.3-1.2,2.9-1.9,4.7-1.9
			h8.7c1.8,0,3.4,0.6,4.7,1.9c1.3,1.2,2,2.8,2,4.6v5.4c0,1.2-0.3,2.2-1,2.8c-0.7,0.6-1.5,0.9-2.6,0.9H25.8v4.1c0,1,0.3,1.7,0.8,2.3
			c0.5,0.5,1.3,0.8,2.4,0.8h11c0.6,0,1.1,0.1,1.5,0.5c0.4,0.3,0.5,0.8,0.5,1.4v0.6c0,0.5-0.2,1-0.6,1.4C41.3,84,40.8,84.1,40.2,84.1
			L40.2,84.1z M26.8,62.2c-0.5,0.5-0.8,1.1-0.8,1.9v4.4h12.5v-4.4c0-0.8-0.2-1.4-0.8-1.9c-0.5-0.5-1.1-0.8-1.9-0.8h-7.3
			C27.9,61.5,27.3,61.7,26.8,62.2"/>
		<path class="st1" d="M68.9,84.1h-0.8c-0.6,0-1.1-0.2-1.5-0.6S66,82.6,66,82.1V65.6l-5.3,6.9c-0.3,0.4-0.6,0.7-0.9,1
			s-0.7,0.4-1.2,0.4H58c-0.4,0-0.8-0.1-1.1-0.4c-0.3-0.2-0.6-0.6-0.9-1l-5.3-6.8v16.4c0,0.5-0.2,1-0.6,1.4s-0.9,0.6-1.4,0.6h-0.8
			c-0.6,0-1.1-0.2-1.5-0.6s-0.6-0.9-0.6-1.4V58.9c0-0.6,0.1-1.1,0.5-1.4c0.3-0.3,0.8-0.5,1.4-0.5h1c0.4,0,0.8,0.1,1.1,0.4
			c0.3,0.2,0.6,0.6,0.9,1l7.6,10.2L66,58.4c0.3-0.5,0.6-0.8,0.8-1c0.3-0.3,0.7-0.4,1.1-0.4h1c0.6,0,1.1,0.1,1.4,0.5
			c0.3,0.3,0.5,0.8,0.5,1.4v23.2c0,0.6-0.2,1.1-0.6,1.4C69.9,84,69.4,84.1,68.9,84.1L68.9,84.1"/>
		<path class="st1" d="M92.6,72.5H78.8v4.1c0,1,0.3,1.7,0.8,2.3c0.5,0.5,1.3,0.8,2.4,0.8h11c0.6,0,1.1,0.1,1.5,0.5
			c0.4,0.3,0.5,0.8,0.5,1.4v0.6c0,0.5-0.2,1-0.6,1.4s-0.9,0.5-1.4,0.5l0,0H80.3c-1.7,0-3.2-0.7-4.5-2s-1.9-2.9-1.9-4.7V63.5
			c0-1.8,0.7-3.4,2-4.6s2.9-1.9,4.7-1.9h8.7c1.8,0,3.4,0.6,4.7,1.9c1.3,1.2,2,2.8,2,4.6v5.4c0,1.2-0.3,2.2-1,2.8
			C94.5,72.2,93.6,72.5,92.6,72.5 M79.6,62.1c-0.5,0.5-0.8,1.1-0.8,1.9v4.4h12.5V64c0-0.8-0.3-1.4-0.8-1.9s-1.1-0.8-1.9-0.8h-7.2
			C80.7,61.3,80.1,61.6,79.6,62.1"/>
		<path class="st1" d="M114.2,84h-8.9l0,0c-1.9,0-3.5-0.7-4.7-1.9c-1.2-1.3-1.9-2.8-1.9-4.6V63.4c0-1.8,0.7-3.4,1.9-4.6
			c1.3-1.2,2.9-1.9,4.7-1.9h12.3c0.6,0,1.1,0.2,1.5,0.5s0.6,0.8,0.6,1.4v0.6c0,0.5-0.2,1-0.6,1.4c-0.4,0.3-0.9,0.5-1.4,0.5h-11.4
			c-0.8,0-1.4,0.3-2,0.8c-0.5,0.5-0.8,1.1-0.8,2V77c0,0.8,0.2,1.4,0.7,1.9s1.1,0.8,2,0.8h7.1c0.8,0,1.4-0.3,1.9-0.8
			c0.5-0.6,0.8-1.2,0.8-1.9v-4.2h-4.8c-0.6,0-1.1-0.2-1.5-0.5s-0.6-0.8-0.6-1.4v-0.6c0-0.5,0.2-1,0.6-1.4c0.4-0.3,0.9-0.5,1.4-0.5
			h9.7v9.2c0,1.8-0.7,3.3-1.9,4.6C117.6,83.4,116,84,114.2,84"/>
		<path class="st1" d="M142,72.5h-13.8v4.1c0,1,0.3,1.7,0.8,2.3c0.5,0.5,1.3,0.8,2.4,0.8h11c0.6,0,1.1,0.1,1.5,0.5
			c0.4,0.3,0.5,0.8,0.5,1.4v0.6c0,0.5-0.2,1-0.6,1.4s-0.9,0.5-1.4,0.5l0,0h-12.7c-1.7,0-3.2-0.7-4.5-2s-1.9-2.9-1.9-4.7V63.5
			c0-1.8,0.7-3.4,2-4.6s2.9-1.9,4.7-1.9h8.7c1.8,0,3.4,0.6,4.7,1.9c1.3,1.2,2,2.8,2,4.6v5.4c0,1.2-0.3,2.2-1,2.8
			C143.9,72.2,143,72.5,142,72.5 M128.9,62.1c-0.5,0.5-0.8,1.1-0.8,1.9v4.4h12.5V64c0-0.8-0.2-1.4-0.8-1.9c-0.5-0.5-1.1-0.8-1.9-0.8
			h-7.3C130.1,61.3,129.5,61.6,128.9,62.1"/>
		<path class="st1" d="M125.9,52.4c0-0.3,0.2-0.6,0.5-0.7l14.9-3.7c0.1,0,0.1,0,0.2,0c0.4,0,0.7,0.3,0.7,0.7v3.7l0,0l0,0
			c0,0.4-0.3,0.7-0.7,0.7h-14.9h-0.1C126.3,53.1,125.9,52.8,125.9,52.4"/>
	</g>
</g>
</svg>
